# xmcd
#
# Track frame offsets: 
#        150
#        14495
#        29240
#        42969
#        57696
#        71894
#        85530
#        99818
#        112958
#        127087
#        140551
#        154121
#        168396
#        183625
#        197803
#        211775
#        226425
#        240625
#        256974
#        272373
#        286264
#        301459
#
# Disc length: 4208 seconds
#
# Revision: 0
# Processed by: cddbd v1.5.2PL0 Copyright (c) Steve Scherf et al.
# Submitted via: ExactAudioCopy v0.95b4
#
DISCID=40106e16
DTITLE=Bessie Smith - Queen of the Blues Volume 1 CD C - [788065-902926
DTITLE=]
DYEAR=2007
DGENRE=Blues
TTITLE0=Weeping Willow Blues
TTITLE1=The Bye Bye Blues
TTITLE2=Sing Sing Prision Blues
TTITLE3=Follow the Deal on Down
TTITLE4=Sinful Blues
TTITLE5=Woman's Trouble Blues
TTITLE6=Love Me Daddy Blues
TTITLE7=Dyin' Gambler Blues
TTITLE8=The St Louis Blues
TTITLE9=Reckless Blues
TTITLE10=Sobbin' Hearted Blues
TTITLE11=Cold in Hand Blues
TTITLE12=You've Been a Good Old Wagon
TTITLE13=Cake Walkin' Babies from Home
TTITLE14=The Yellow Dog Blues, Pt. 1
TTITLE15=Soft Pedal, Pt. 1
TTITLE16=Dixie Flyer Blues
TTITLE17=Nashville Women's Blues, Pt. 2
TTITLE18=Careless Love, Pt. 1
TTITLE19=J.C. Holmes Blues
TTITLE20=I Ain't Going to Play Second Fiddle
TTITLE21=He's Gone Blues
EXTD=
EXTT0=
EXTT1=
EXTT2=
EXTT3=
EXTT4=
EXTT5=
EXTT6=
EXTT7=
EXTT8=
EXTT9=
EXTT10=
EXTT11=
EXTT12=
EXTT13=
EXTT14=
EXTT15=
EXTT16=
EXTT17=
EXTT18=
EXTT19=
EXTT20=
EXTT21=
PLAYORDER=
